{"asset":{"generator":"3D Builder","version":"2.0"},"scene":0,"scenes":[{"nodes":[0]}],"nodes":[{"mesh":0,"matrix":[0.99999994039535522,0,0,0,0,-1.1920928244535389E-7,-0.99999982118606567,0,0,0.99999982118606567,-1.1920928244535389E-7,0,0,41.736736297607422,-4.9754071369534358E-6,1]}],"meshes":[{"primitives":[{"attributes":{"POSITION":0},"mode":4,"indices":4,"material":0},{"attributes":{"POSITION":1},"mode":4,"indices":5,"material":1},{"attributes":{"POSITION":2},"mode":4,"indices":6,"material":2},{"attributes":{"POSITION":3},"mode":4,"indices":7,"material":3}]}],"materials":[{"name":"02___Default","pbrMetallicRoughness":{"baseColorFactor":[0.0030340556986629963,0.0030340556986629963,0.0030340556986629963,1],"metallicFactor":0,"roughnessFactor":1}},{"name":"03___Default","pbrMetallicRoughness":{"baseColorFactor":[1,0.92156904935836792,0.00091331271687522531,1],"metallicFactor":0,"roughnessFactor":1}},{"name":"_crayfishdiffuse","pbrMetallicRoughness":{"baseColorFactor":[0.79137593507766724,0.79137593507766724,0.79137593507766724,1],"metallicFactor":0,"roughnessFactor":1}},{"name":"07___Default","pbrMetallicRoughness":{"baseColorFactor":[0.0085686808452010155,0.50295519828796387,0.95599091053009033,1],"metallicFactor":0,"roughnessFactor":1}}],"accessors":[{"bufferView":0,"byteOffset":0,"count":1362,"componentType":5126,"type":"VEC3","min":[-170.54759216308594,0.040195301175117493,-41.736740112304688],"max":[-154.34477233886719,29.048273086547852,-29.013315200805664]},{"bufferView":0,"byteOffset":16344,"count":78,"componentType":5126,"type":"VEC3","min":[-161.20823669433594,7.7953410148620605,-38.869174957275391],"max":[-156.95759582519531,24.947418212890625,-33.247653961181641]},{"bufferView":0,"byteOffset":17280,"count":2082,"componentType":5126,"type":"VEC3","min":[-161.41616821289062,2.1435716152191162,-39.768440246582031],"max":[-155.25881958007812,25.376863479614258,-31.95347785949707]},{"bufferView":0,"byteOffset":42264,"count":114,"componentType":5126,"type":"VEC3","min":[-157.32260131835937,1.5395375490188599,-39.211616516113281],"max":[-155.79373168945312,1.7679595947265625,-34.101398468017578]},{"bufferView":1,"byteOffset":0,"count":8058,"componentType":5125,"type":"SCALAR"},{"bufferView":1,"byteOffset":32232,"count":468,"componentType":5125,"type":"SCALAR"},{"bufferView":1,"byteOffset":34104,"count":12216,"componentType":5125,"type":"SCALAR"},{"bufferView":1,"byteOffset":82968,"count":648,"componentType":5125,"type":"SCALAR"}],"bufferViews":[{"buffer":0,"byteOffset":0,"byteLength":43632,"byteStride":12,"target":34962},{"buffer":0,"byteOffset":43632,"byteLength":85560,"target":34963}],"buffers":[{"byteLength":129192,"uri":"speaker.bin"}]}